<svg xmlns="http://www.w3.org/2000/svg" viewBox="0 0 512 512" fill="green">
  <path d="M256 32C132.3 32 32 132.3 32 256s100.3 224 224 224 224-100.3 224-224S379.7 32 256 32zm43.7 109.1c12.5 0 22.6 10.1 22.6 22.6s-10.1 22.6-22.6 22.6-22.6-10.1-22.6-22.6 10.1-22.6 22.6-22.6zm-85.7 30.9c7.3 0 13.3 6 13.3 13.3v96.6c0 7.3-6 13.3-13.3 13.3s-13.3-6-13.3-13.3v-96.6c0-7.3 6-13.3 13.3-13.3zm114.9 63.7c6.5 0 11.7 5.3 11.7 11.7s-5.3 11.7-11.7 11.7h-55.8c-6.5 0-11.7-5.3-11.7-11.7s5.3-11.7 11.7-11.7h55.8zm-112.4 80.3c16.7 0 30.2 13.5 30.2 30.2s-13.5 30.2-30.2 30.2-30.2-13.5-30.2-30.2 13.5-30.2 30.2-30.2z"/>
</svg>
